# AST/ASF file generated using VICON BodyLanguage
# -----------------------------------------------
:version 1.10
:name VICON
:units
  mass 1.0
  length 0.45
  angle deg
:documentation
   .ast/.asf automatically generated from VICON data using
   VICON BodyBuilder and BodyLanguage model FoxedUp or BRILLIANT.MOD
:root
   order TX TY TZ RX RY RZ
   axis XYZ
   position 0 0 0  
   orientation 0 0 0 
:bonedata
  begin
     id 1 
     name lhipjoint
     direction 0.645893 -0.654526 0.392961 
     length 2.38111 
     axis 0 0 0  XYZ
  end
  begin
     id 2 
     name lfemur
     direction 0.34202 -0.939693 0  
     length 6.6822  
     axis 0 0 20  XYZ
    dof rx ry rz
    limits (-160.0 20.0)
           (-70.0 70.0)
           (-60.0 70.0)
  end
  begin
     id 3 
     name ltibia
     direction 0.34202 -0.939693 0   
     length 6.93904   
     axis 0 0 20   XYZ
    dof rx
    limits (-10.0 170.0)
  end
  begin
     id 4 
     name lfoot
     direction 0.0694967 -0.190941 0.979138   
     length 2.13616   
     axis -90 7.62852e-016 20   XYZ
    dof rx rz
    limits (-45.0 90.0)
           (-70.0 20.0)
  end
  begin
     id 5 
     name ltoes
     direction 1.535e-011 -4.2202e-011 1   
     length 1.07536   
     axis -90 7.62852e-016 20   XYZ
    dof rx
    limits (-90.0 20.0)
  end
  begin
     id 6 
     name rhipjoint
     direction -0.700219 -0.612087 0.367481   
     length 2.54621  
     axis 0 0 0  XYZ 
  end
  begin
     id 7 
     name rfemur
     direction -0.34202 -0.939693 0   
     length 6.55353   
     axis 0 0 -20   XYZ
    dof rx ry rz
    limits (-160.0 20.0)
           (-70.0 70.0)
           (-70.0 60.0)
  end
  begin
     id 8 
     name rtibia
     direction -0.34202 -0.939693 0   
     length 6.8736   
     axis 0 0 -20   XYZ
    dof rx
    limits (-10.0 170.0)
 end
 begin
     id 9 
     name rfoot
     direction -0.0679995 -0.186827 0.980037   
     length 2.1218  
     axis -90 -7.62852e-016 -20   XYZ
    dof rx rz
    limits (-45.0 90.0)
           (-20.0 70.0)
  end
  begin
     id 10 
     name rtoes
     direction -1.53589e-011 -4.21772e-011 1   
     length 1.06864   
     axis -90 -7.62852e-016 -20   XYZ
    dof rx
    limits (-90.0 20.0)
  end
  begin
     id 11 
     name lowerback
     direction -0.0416607 0.996347 -0.0745409   
     length 2.12205   
     axis 0 0 0   XYZ
    dof rx ry rz
    limits (-20.0 45.0)
           (-30.0 30.0)
           (-30.0 30.0)
  end
  begin
     id 12 
     name upperback
     direction -0.000153993 0.999276 -0.0380568   
     length 2.12759   
     axis 0 0 0   XYZ
    dof rx ry rz
    limits (-20.0 45.0)
           (-30.0 30.0)
           (-30.0 30.0)
  end
  begin
     id 13 
     name thorax
     direction 0.0187671 0.999821 -0.00241421   
     length 2.13704   
     axis 0 0 0   XYZ
    dof rx ry rz
    limits (-20.0 45.0)
           (-30.0 30.0)
           (-30.0 30.0)
  end
  begin
     id 14 
     name lowerneck
     direction 0.0268157 0.964865 0.261374   
     length 1.65253   
     axis 0 0 0   XYZ
    dof rx ry rz
    limits (-20.0 45.0)
           (-30.0 30.0)
           (-30.0 30.0)
  end
  begin
     id 15 
     name upperneck
     direction 0.00263774 0.939908 -0.341418   
     length 1.72375   
     axis 0 0 0   XYZ
    dof rx ry rz
    limits (-20.0 45.0)
           (-30.0 30.0)
           (-30.0 30.0)
  end
  begin
     id 16
     name head
     direction -0.00526001 0.989001 -0.147818  
     length 1.74878  
     axis 0 0 0   XYZ
    dof rx ry rz
    limits (-20.0 45.0)
           (-30.0 30.0)
           (-30.0 30.0)
  end
  begin
     id 17 
     name lclavicle
     direction 0.881214 0.461162 -0.103884  
     length 3.25108  
     axis 0 0 0   XYZ
    dof ry rz
    limits (-20.0 10.0)
           (0.0 20.0)
  end
  begin
     id 18 
     name lhumerus
     direction 1 -4.4899e-011 3.38092e-027   
     length 4.87408   
     axis 180 -30 -90   XYZ
    dof rx ry rz
    limits (-60.0 90.0)
           (-90.0 90.0)
           (-90.0 90.0)
  end
  begin
     id 19
     name lradius
     direction 1 -4.48931e-011 9.96288e-027   
     length 2.76729   
     axis 180 -30 -90   XYZ
    dof rx
    limits (-10.0 170.0)
  end
  begin
     id 20
     name lwrist
     direction 1 -4.4896e-011 1.50617e-026   
     length 1.38364   
     axis -9.31234e-015 90 90   XYZ
    dof ry
    limits (-180.0 0.0)
 end
  begin
     id 21 
     name lhand
     direction 1 -4.49038e-011 3.01286e-026   
     length 0.98922   
     axis -1.92217e-014 90 90   XYZ
    dof rx rz
    limits (-90.0 90.0)
           (-45.0 45.0)
  end
  begin
     id 22 
     name lfingers
     direction 1 -4.49051e-011 6.02588e-026   
     length 0.797535   
     axis -3.84436e-014 90 90   XYZ
    dof rx
    limits (0.0 90.0)
  end
  begin
     id 23
     name lthumb
     direction 0.707107 -6.34901e-011 0.707107   
     length 1.14511   
     axis -90 45 2.19363e-014   XYZ
    dof rx rz
    limits (-45.0 45.0)
           (-45.0 45.0)
  end
  begin
     id 24 
     name rclavicle
     direction -0.893894 0.441652 -0.0767889   
     length 3.29361  
     axis 0 0 0   XYZ 
    dof ry rz
    limits (-10.0 20.0)
           (-20.0 0.0)
  end
  begin
     id 25 
     name rhumerus
     direction -1 -4.48945e-011 8.0491e-028  
     length 4.71404   
     axis 180 30 90   XYZ
    dof rx ry rz
    limits (-90.0 60.0)
           (-90.0 90.0)
           (-90.0 90.0)
  end
  begin
     id 26 
     name rradius
     direction -1 -4.48986e-011 9.27795e-027   
     length 2.83468   
     axis 180 30 90   XYZ
    dof rx
    limits (-10.0 170.0)
  end
  begin
     id 27 
     name rwrist
     direction -1 -4.49029e-011 1.5064e-026   
     length 1.41734   
     axis -9.31234e-015 -90 -90   XYZ
    dof ry
    limits (-180.0 0.0)
  end
  begin
     id 28
     name rhand
     direction -1 -4.48857e-011 3.01165e-026   
     length 0.868195   
     axis -1.92217e-014 -90 -90   XYZ
    dof rx rz
    limits (-90.0 90.0)
           (-45.0 45.0)
  end
  begin
     id 29
     name rfingers
     direction -1 -4.49048e-011 6.02585e-026   
     length 0.699961   
     axis -3.84436e-014 -90 -90   XYZ
    dof rx
    limits (0.0 90.0)
  end
  begin
     id 30
     name rthumb
     direction -0.707107 -6.34854e-011 0.707107   
     length 1.00501   
     axis -90 -45 -2.19363e-014   XYZ
    dof rx rz
    limits (-45.0 45.0)
           (-45.0 45.0)
  end
:hierarchy
  begin
    root lhipjoint rhipjoint lowerback
    lhipjoint lfemur
    lfemur ltibia
    ltibia lfoot
    lfoot ltoes
    rhipjoint rfemur
    rfemur rtibia
    rtibia rfoot
    rfoot rtoes
    lowerback upperback
    upperback thorax
    thorax lowerneck lclavicle rclavicle
    lowerneck upperneck
    upperneck head
    lclavicle lhumerus
    lhumerus lradius
    lradius lwrist
    lwrist lhand lthumb
    lhand lfingers
    rclavicle rhumerus
    rhumerus rradius
    rradius rwrist
    rwrist rhand rthumb
    rhand rfingers
  end

#!OML:ASF H:\ManfredObstacles\Project 1\Capture day 2\Session 1\male.ASF
:FULLY-SPECIFIED
:DEGREES
226
root -0.0446278 15.7494 23.8189 -171.439 -0.141769 174.62
lowerback -0.981756 -1.25046 -8.50709
upperback 1.08387 -1.56725 -0.323119
thorax 1.89533 -0.916511 4.38939
lowerneck -34.4794 0.450919 1.46821
upperneck 33.5768 0.55226 0.262226
head 18.4213 0.746328 0.11073
rclavicle 4.72114e-015 -1.53064e-014
rhumerus -39.3931 -22.6221 -69.8459
rradius 23.9696
rwrist 37.4957
rhand -0.812152 -7.07061
rfingers 7.12502
rthumb 24.8122 -35.4808
lclavicle 4.72114e-015 -1.53064e-014
lhumerus -24.3434 12.6393 84.9761
lradius 20.6627
lwrist -48.8456
lhand 3.63343 7.25225
lfingers 7.12502
lthumb 29.0657 35.0047
rfemur -39.2698 -1.34679 15.582
rtibia 51.2608
rfoot -8.2841 -23.0574
rtoes -21.6747
lfemur -2.01279 -7.24893 -29.0194
ltibia 13.8047
lfoot -7.72157 17.9459
ltoes 5.03826
227
root -0.0420587 15.7534 23.7204 -171.437 -0.298957 174.614
lowerback -0.911384 -3.15511 -8.75181
upperback 1.07916 -4.09803 1.19518
thorax 2.34064 -2.20111 6.00545
lowerneck -36.3832 1.67312 -1.54511
upperneck 34.2018 4.06767 0.591327
head 19.1373 1.68984 1.69643
rclavicle 3.95581e-014 -1.63003e-014
rhumerus -36.6645 -16.3038 -70.4643
rradius 23.283
rwrist 36.9128
rhand -0.773127 -7.12728
rfingers 7.12502
rthumb 24.8496 -35.5323
lclavicle 3.95581e-014 -1.63003e-014
lhumerus -25.0838 18.6447 85.4636
lradius 21.6039
lwrist -48.7052
lhand 3.5668 7.27635
lfingers 7.12502
lthumb 29.002 35.0398
rfemur -39.5559 -1.02808 15.3879
rtibia 49.3117
rfoot -7.60043 -23.2177
rtoes -22.2225
lfemur -1.00127 -7.18989 -29.0272
ltibia 12.5842
lfoot -7.42606 17.6246
ltoes 4.65209
228
root -0.0383019 15.7558 23.6252 -171.382 -0.554187 174.601
lowerback -0.747637 -1.38262 -8.71659
upperback 1.00008 -1.76702 -0.233655
thorax 1.71431 -1.00859 4.60038
lowerneck -34.4326 0.249127 1.06119
upperneck 33.5867 0.348503 0.60076
head 18.413 0.668988 0.289158
rclavicle -4.13721e-015 -2.78299e-015
rhumerus -40.5148 -23.2421 -68.7446
rradius 23.666
rwrist 38.1517
rhand -0.846835 -7.13661
rfingers 7.12502
rthumb 24.779 -35.5514
lclavicle -4.13721e-015 -2.78299e-015
lhumerus -24.2001 10.0326 86.302
lradius 21.8942
lwrist -46.4605
lhand 3.83594 7.34291
lfingers 7.12502
lthumb 29.2591 35.0618
rfemur -39.8456 -0.731284 15.1322
rtibia 47.3224
rfoot -6.94246 -23.2196
rtoes -22.5336
lfemur 0.0437084 -7.19968 -29.0087
ltibia 11.1605
lfoot -7.07861 17.1948
ltoes 4.30548
229
root -0.0332247 15.7516 23.5266 -171.325 -0.788047 174.55
lowerback -0.924494 -1.45825 -8.85224
upperback 1.12936 -1.8432 -0.220459
thorax 1.96504 -1.06394 4.68047
lowerneck -35.0268 0.529665 1.51234
upperneck 33.4793 0.549439 0.333338
head 18.4933 0.74507 0.132889
rclavicle 2.83889e-014 9.54166e-015
rhumerus -40.7437 -23.889 -68.1777
rradius 23.27
rwrist 38.5749
rhand -0.940194 -7.05308
rfingers 7.12502
rthumb 24.6895 -35.4802
lclavicle 2.83889e-014 9.54166e-015
lhumerus -23.7477 8.94433 86.8838
lradius 22.292
lwrist -45.7139
lhand 3.59462 7.14651
lfingers 7.12502
lthumb 29.0286 34.9053
rfemur -40.051 -0.37407 14.7971
rtibia 45.3006
rfoot -6.7263 -23.0686
rtoes -23.4461
lfemur 1.22616 -7.36809 -29.0346
ltibia 9.51409
lfoot -6.52718 16.8654
ltoes 3.86053
230
root -0.0286211 15.7551 23.4239 -171.209 -0.93328 174.525
lowerback -0.935132 -1.49544 -8.96969
upperback 1.08593 -1.89171 -0.204709
thorax 1.93779 -1.08713 4.7614
lowerneck -34.4141 0.21873 1.06581
upperneck 33.3725 0.234044 0.689935
head 18.2907 0.629856 0.296731
rclavicle -9.44227e-016 2.28602e-015
rhumerus -41.4379 -24.5296 -67.3995
rradius 23.1193
rwrist 39.2739
rhand -0.892096 -6.81588
rfingers 7.12502
rthumb 24.7356 -35.2366
lclavicle -9.44227e-016 2.28602e-015
lhumerus -23.666 7.39058 87.5526
lradius 23.0387
lwrist -44.4165
lhand 3.67348 7.33513
lfingers 7.12502
lthumb 29.1039 35.081
rfemur -40.3423 0.104445 14.4413
rtibia 43.2771
rfoot -6.69294 -22.8805
rtoes -23.2447
lfemur 2.54193 -7.45491 -29.0285
ltibia 7.44932
lfoot -5.75989 16.3745
ltoes 3.1748
231
root -0.0251899 15.7544 23.3202 -171.155 -1.16524 174.451
lowerback -1.12182 -1.58798 -9.00121
upperback 1.19971 -1.99161 -0.246808
thorax 2.1763 -1.15227 4.72359
lowerneck -34.4109 0.0689971 0.803242
upperneck 33.1931 0.0670565 0.855212
head 18.1916 0.546986 0.372593
rclavicle -3.24267e-015 6.06293e-015
rhumerus -41.836 -25.39 -66.6943
rradius 22.6816
rwrist 40.388
rhand -1.09822 -6.70142
rfingers 7.12502
rthumb 24.5381 -35.1491
lclavicle -3.24267e-015 6.06293e-015
lhumerus -23.359 6.3399 88.0353
lradius 23.6428
lwrist -43.4998
lhand 3.78737 7.341
lfingers 7.12502
lthumb 29.2127 35.068
rfemur -40.4976 0.58287 13.9892
rtibia 41.2648
rfoot -6.20867 -22.7136
rtoes -23.951
lfemur 4.41217 -7.62303 -29.0916
ltibia 4.43897
lfoot -4.53016 15.5936
ltoes 2.50238
232
root -0.018361 15.7585 23.2148 -171.061 -1.4069 174.408
lowerback -1.03494 -1.70803 -9.0181
upperback 1.0916 -2.16541 -0.263581
thorax 2.04044 -1.22953 4.71317
lowerneck -34.3955 0.217075 0.991559
upperneck 33.2854 0.210463 0.818928
head 18.2387 0.627949 0.362036
rclavicle -1.08089e-015 -1.40143e-014
rhumerus -42.4959 -25.6933 -66.1123
rradius 22.4661
rwrist 40.771
rhand -1.12686 -6.70151
rfingers 7.12502
rthumb 24.5106 -35.1529
lclavicle -1.08089e-015 -1.40143e-014
lhumerus -23.361 5.16995 88.5178
lradius 24.3619
lwrist -41.776
lhand 4.02386 7.54547
lfingers 7.12502
lthumb 29.4385 35.233
rfemur -40.7102 1.06411 13.5585
rtibia 39.2955
rfoot -5.94227 -22.4135
rtoes -24.099
lfemur 6.98738 -7.80076 -29.1214
ltibia 1.90833e-014
lfoot -2.74364 14.3657
ltoes 1.65391
233
root -0.011977 15.7587 23.1096 -170.945 -1.60042 174.309
lowerback -1.23329 -2.03802 -8.48373
upperback 1.77202 -2.57473 -0.332025
thorax 2.89395 -1.48549 4.30128
lowerneck -38.5631 0.289092 0.274184
upperneck 34.32 0.46511 1.04951
head 19.7859 0.613836 0.684682
rclavicle 2.5345e-015 2.75317e-014
rhumerus -41.0904 -26.8384 -66.082
rradius 21.7316
rwrist 42.2432
rhand -1.22833 -6.50415
rfingers 7.12502
rthumb 24.4133 -34.9687
lclavicle 2.5345e-015 2.75317e-014
lhumerus -21.7361 5.06145 88.8398
lradius 24.8612
lwrist -41.0376
lhand 4.20108 7.52898
lfingers 7.12502
lthumb 29.6077 35.1866
rfemur -40.9571 1.69649 12.9951
rtibia 37.3752
rfoot -5.71619 -22.2723
rtoes -23.62
lfemur 7.26566 -7.94466 -29.1996
ltibia 0
lfoot -2.73713 14.4222
ltoes 0.815559
234
root -0.0107082 15.7579 23.0059 -170.758 -1.6769 174.252
lowerback -1.33123 -1.83087 -9.19811
upperback 1.11197 -2.29381 -0.264689
thorax 2.25586 -1.30641 4.79689
lowerneck -34.2451 0.222441 1.00468
upperneck 33.0017 0.1581 0.886704
head 18.0505 0.609989 0.371709
rclavicle 5.67779e-015 -4.67144e-015
rhumerus -43.5015 -27.0298 -64.6273
rradius 21.8847
rwrist 41.9847
rhand -1.09119 -6.55631
rfingers 7.12502
rthumb 24.5448 -35.0031
lclavicle 5.67779e-015 -4.67144e-015
lhumerus -23.0625 3.33811 89.4495
lradius 25.5879
lwrist -41.0453
lhand 4.029 7.35207
lfingers 7.12502
lthumb 29.4434 35.0387
rfemur -41.3325 2.21699 12.4835
rtibia 35.5499
rfoot -5.52113 -21.8895
rtoes -23.2607
lfemur 7.46589 -7.97808 -29.2725
ltibia 2.22639e-014
lfoot -2.66463 14.4709
ltoes -0.0419357
235
root -0.00419496 15.7564 22.8999 -170.578 -1.74785 174.265
lowerback -1.31935 -1.86563 -9.13915
upperback 0.984984 -2.34843 -0.30894
thorax 2.12017 -1.3222 4.71844
lowerneck -34.4385 0.109438 0.956838
upperneck 33.3189 -0.00464746 0.994253
head 18.2677 0.56994 0.398054
rclavicle -1.52816e-015 1.73937e-015
rhumerus -44.2123 -27.5303 -63.9577
rradius 21.6398
rwrist 42.4024
rhand -1.09212 -6.66666
rfingers 7.12502
rthumb 24.5439 -35.1136
lclavicle -1.52816e-015 1.73937e-015
lhumerus -22.9869 2.60794 89.7167
lradius 26.0566
lwrist -40.9104
lhand 3.96765 7.06411
lfingers 7.12502
lthumb 29.3848 34.761
rfemur -41.709 2.87011 12.0393
rtibia 33.8135
rfoot -4.63676 -21.8072
rtoes -23.7969
lfemur 7.67403 -7.99655 -29.2345
ltibia 3.18055e-014
lfoot -2.62226 14.5108
ltoes -0.775217
236
root 0.00071834 15.7579 22.7885 -170.47 -1.87872 174.183
lowerback -1.49743 -0.356165 -8.26975
upperback 1.30272 -0.373253 -1.95145
thorax 2.22684 -0.360481 2.59734
lowerneck -35.3387 -0.365532 2.38756
upperneck 33.4024 -3.59201 1.63683
head 18.5298 -1.07492 -0.626838
rclavicle -1.52567e-014 -4.73108e-014
rhumerus -47.8567 -33.3763 -62.2656
rradius 21.9177
rwrist 43.045
rhand -1.20842 -6.66152
rfingers 7.12502
rthumb 24.4324 -35.1235
lclavicle -1.52567e-014 -4.73108e-014
lhumerus -21.9963 -5.11004 89.7277
lradius 26.8357
lwrist -37.5464
lhand 4.89438 7.65385
lfingers 7.12502
lthumb 30.2692 35.192
rfemur -41.9833 3.46492 11.4726
rtibia 32.2502
rfoot -5.15577 -21.6881
rtoes -24.0738
lfemur 7.99536 -8.0749 -29.319
ltibia -9.54166e-015
lfoot -2.65132 14.6177
ltoes -1.39975
237
root 0.00721073 15.7556 22.6756 -170.331 -2.02427 174.138
lowerback -1.66188 -1.96176 -9.43586
upperback 1.29846 -2.41895 -0.192151
thorax 2.6713 -1.39823 4.9837
lowerneck -35.2367 0.102115 0.768183
upperneck 33.4958 0.0246379 1.05983
head 18.548 0.556815 0.471421
rclavicle -7.28049e-015 -3.97569e-016
rhumerus -44.6095 -28.7578 -62.815
rradius 21.1696
rwrist 43.0533
rhand -1.00479 -6.95293
rfingers 7.12502
rthumb 24.6276 -35.3885
lclavicle -7.28049e-015 -3.97569e-016
lhumerus -21.8275 1.11648 90.7468
lradius 27.1837
lwrist -39.1325
lhand 4.38753 7.08555
lfingers 7.12502
lthumb 29.7856 34.7114
rfemur -42.3424 4.09179 10.927
rtibia 30.8465
rfoot -5.14359 -21.7511
rtoes -24.1615
lfemur 8.29921 -8.16776 -29.3456
ltibia 9.54166e-015
lfoot -2.63465 14.6485
ltoes -2.10233
